<?xml version="1.0" encoding="UTF-8"?>
<!DOCTYPE svg PUBLIC "-//W3C//DTD SVG 1.1//EN" "http://www.w3.org/Graphics/SVG/1.1/DTD/svg11.dtd">
<svg xmlns="http://www.w3.org/2000/svg" version="1.1" width="40px" height="40px" style="shape-rendering:geometricPrecision; text-rendering:geometricPrecision; image-rendering:optimizeQuality; fill-rule:evenodd; clip-rule:evenodd" xmlns:xlink="http://www.w3.org/1999/xlink">
<g><path style="opacity:0.067" fill="#3b79c4" d="M 12.5,-0.5 C 17.1667,-0.5 21.8333,-0.5 26.5,-0.5C 28.7686,0.97576 31.1019,2.47576 33.5,4C 34.8228,4.81595 35.4894,5.98261 35.5,7.5C 28.4056,0.745976 20.0723,-1.25402 10.5,1.5C 11.1667,0.833333 11.8333,0.166667 12.5,-0.5 Z"/></g>
<g><path style="opacity:0.345" fill="#3879c4" d="M 10.5,1.5 C 1.38539,8.01152 -1.44794,16.6782 2,27.5C 3.59633,30.3695 5.42967,33.0361 7.5,35.5C 5.62901,35.1412 4.12901,34.1412 3,32.5C 2.05898,30.2726 0.892318,28.2726 -0.5,26.5C -0.5,21.8333 -0.5,17.1667 -0.5,12.5C 1.49365,7.17301 5.16032,3.50635 10.5,1.5 Z"/></g>
<g><path style="opacity:0.416" fill="#2a72c1" d="M 35.5,7.5 C 36.9063,7.97306 37.573,8.97306 37.5,10.5C 36.0937,10.0269 35.427,9.02694 35.5,7.5 Z"/></g>
<g><path style="opacity:0.156" fill="#3374c2" d="M 37.5,10.5 C 38.1667,11.1667 38.8333,11.8333 39.5,12.5C 39.5,17.1667 39.5,21.8333 39.5,26.5C 36.8333,32.5 32.5,36.8333 26.5,39.5C 21.8333,39.5 17.1667,39.5 12.5,39.5C 10.6508,38.407 8.98417,37.0737 7.5,35.5C 16.1575,39.8999 24.4908,39.3999 32.5,34C 38.3767,27.1458 40.0434,19.3125 37.5,10.5 Z"/></g>
<g><path style="opacity:1" fill="#dde9f5" d="M 35.5,7.5 C 35.427,9.02694 36.0937,10.0269 37.5,10.5C 40.0434,19.3125 38.3767,27.1458 32.5,34C 24.4908,39.3999 16.1575,39.8999 7.5,35.5C 5.42967,33.0361 3.59633,30.3695 2,27.5C -1.44794,16.6782 1.38539,8.01152 10.5,1.5C 20.0723,-1.25402 28.4056,0.745976 35.5,7.5 Z"/></g>
<g><path style="opacity:1" fill="#e84748" d="M 24.5,27.5 C 22.7867,29.8504 20.4534,30.8504 17.5,30.5C 16.8333,29.1667 15.8333,28.1667 14.5,27.5C 15.3193,20.1789 18.486,18.8455 24,23.5C 24.49,24.7932 24.6567,26.1266 24.5,27.5 Z"/></g>
<g><path style="opacity:1" fill="#1d66bb" d="M 4.5,22.5 C 6.34735,25.1715 9.01402,26.1715 12.5,25.5C 13.1667,26.1667 13.8333,26.8333 14.5,27.5C 14.5,29.5 15.5,30.5 17.5,30.5C 20.4534,30.8504 22.7867,29.8504 24.5,27.5C 25.1667,26.8333 25.8333,26.1667 26.5,25.5C 29.8306,25.9819 32.4973,24.9819 34.5,22.5C 35.3382,22.8417 35.6716,23.5084 35.5,24.5C 33.2951,32.8546 27.7951,36.8546 19,36.5C 10.7407,36.3994 5.57406,32.3994 3.5,24.5C 3.32842,23.5084 3.66175,22.8417 4.5,22.5 Z"/></g>
<g><path style="opacity:1" fill="#aaafcf" d="M 14.5,27.5 C 15.8333,28.1667 16.8333,29.1667 17.5,30.5C 15.5,30.5 14.5,29.5 14.5,27.5 Z"/></g>
<g><path style="opacity:1" fill="#fdeeee" d="M 18.5,22.5 C 23.0205,23.9753 23.3538,25.9753 19.5,28.5C 18.5,27.5 17.5,26.5 16.5,25.5C 17.6119,24.7348 18.2786,23.7348 18.5,22.5 Z"/></g>
<g><path style="opacity:1" fill="#8cabd5" d="M 26.5,25.5 C 25.8333,26.1667 25.1667,26.8333 24.5,27.5C 24.6567,26.1266 24.49,24.7932 24,23.5C 18.486,18.8455 15.3193,20.1789 14.5,27.5C 13.8333,26.8333 13.1667,26.1667 12.5,25.5C 13.2632,23.6316 14.2632,21.9649 15.5,20.5C 21.1175,18.1446 24.7841,19.8112 26.5,25.5 Z"/></g>
<g><path style="opacity:1" fill="#f5f5f8" d="M 13.5,9.5 C 14.0968,8.86137 14.9302,8.52804 16,8.5C 19.7972,10.7644 23.9639,11.9311 28.5,12C 29.2386,15.0735 31.0719,17.2402 34,18.5C 34.49,19.7932 34.6567,21.1266 34.5,22.5C 32.4973,24.9819 29.8306,25.9819 26.5,25.5C 24.7841,19.8112 21.1175,18.1446 15.5,20.5C 15.5,20.1667 15.5,19.8333 15.5,19.5C 16.0114,17.8053 16.6781,16.1386 17.5,14.5C 19.0026,14.1654 20.336,14.1654 21.5,14.5C 19.9208,13.3331 18.5875,11.9998 17.5,10.5C 16.4324,9.56552 15.099,9.23219 13.5,9.5 Z"/></g>
<g><path style="opacity:1" fill="#f5f8fb" d="M 13.5,9.5 C 15.099,9.23219 16.4324,9.56552 17.5,10.5C 15.8372,12.4385 15.1706,14.7718 15.5,17.5C 11.7139,17.638 11.7139,18.3047 15.5,19.5C 15.5,19.8333 15.5,20.1667 15.5,20.5C 14.2632,21.9649 13.2632,23.6316 12.5,25.5C 9.01402,26.1715 6.34735,25.1715 4.5,22.5C 3.53296,18.1486 5.19963,15.8153 9.5,15.5C 8.89108,12.1216 10.2244,10.1216 13.5,9.5 Z"/></g>
<g><path style="opacity:1" fill="#1865bb" d="M 35.5,24.5 C 35.6716,23.5084 35.3382,22.8417 34.5,22.5C 34.6567,21.1266 34.49,19.7932 34,18.5C 31.0719,17.2402 29.2386,15.0735 28.5,12C 23.9639,11.9311 19.7972,10.7644 16,8.5C 14.9302,8.52804 14.0968,8.86137 13.5,9.5C 10.2244,10.1216 8.89108,12.1216 9.5,15.5C 5.19963,15.8153 3.53296,18.1486 4.5,22.5C 3.66175,22.8417 3.32842,23.5084 3.5,24.5C 0.541744,11.6046 5.70841,4.27129 19,2.5C 32.8351,3.81194 38.3351,11.1453 35.5,24.5 Z"/></g>
<g><path style="opacity:1" fill="#f69a9d" d="M 17.5,10.5 C 18.5875,11.9998 19.9208,13.3331 21.5,14.5C 20.336,14.1654 19.0026,14.1654 17.5,14.5C 16.6781,16.1386 16.0114,17.8053 15.5,19.5C 11.7139,18.3047 11.7139,17.638 15.5,17.5C 15.1706,14.7718 15.8372,12.4385 17.5,10.5 Z"/></g>
</svg>
