<?xml version="1.0" encoding="UTF-8"?>
<!DOCTYPE svg PUBLIC "-//W3C//DTD SVG 1.1//EN" "http://www.w3.org/Graphics/SVG/1.1/DTD/svg11.dtd">
<svg xmlns="http://www.w3.org/2000/svg" version="1.1" width="75px" height="75px" style="shape-rendering:geometricPrecision; text-rendering:geometricPrecision; image-rendering:optimizeQuality; fill-rule:evenodd; clip-rule:evenodd" xmlns:xlink="http://www.w3.org/1999/xlink">
<g><path style="opacity:0.283" fill="#1f68bc" d="M 28.5,-0.5 C 34.1667,-0.5 39.8333,-0.5 45.5,-0.5C 60.1667,4.16667 69.8333,13.8333 74.5,28.5C 74.5,34.5 74.5,40.5 74.5,46.5C 69.7289,60.9383 60.0622,70.2716 45.5,74.5C 39.8333,74.5 34.1667,74.5 28.5,74.5C 13.3899,69.7238 3.72324,59.7238 -0.5,44.5C -0.5,39.1667 -0.5,33.8333 -0.5,28.5C 4.16667,13.8333 13.8333,4.16667 28.5,-0.5 Z"/></g>
<g><path style="opacity:1" fill="#e8f0f8" d="M 31.5,0.5 C 61.4883,1.53641 74.9883,16.8697 72,46.5C 63.2435,68.2954 47.4102,76.462 24.5,71C 5.74978,62.0008 -1.75022,47.1675 2,26.5C 7.37799,12.5919 17.2113,3.9252 31.5,0.5 Z"/></g>
<g><path style="opacity:1" fill="#0e61b9" d="M 29.5,4.5 C 49.3342,2.65062 62.5009,10.984 69,29.5C 70.5,57.3333 57.3333,70.5 29.5,69C 7.24805,59.996 0.0813874,44.1627 8,21.5C 13.2887,13.3693 20.4554,7.70265 29.5,4.5 Z"/></g>
<g><path style="opacity:1" fill="#f8f9fc" d="M 48.5,45.5 C 45.0012,37.2556 39.0012,34.7556 30.5,38C 27.8002,39.8567 26.1335,42.3567 25.5,45.5C 25.5,46.5 25.5,47.5 25.5,48.5C 12.6851,50.8499 7.51839,45.8499 10,33.5C 11.883,30.9756 14.383,29.6423 17.5,29.5C 18.9167,18.9346 24.9167,14.7679 35.5,17C 38.5812,18.0867 41.0812,19.92 43,22.5C 50.9405,19.7115 55.4405,22.3781 56.5,30.5C 64.0643,31.7188 66.5643,36.0521 64,43.5C 62.8906,45.8147 61.0573,47.3147 58.5,48C 55.1832,48.4983 51.8499,48.665 48.5,48.5C 48.5,47.5 48.5,46.5 48.5,45.5 Z"/></g>
<g><path style="opacity:1" fill="#f15a5c" d="M 39.5,27.5 C 38.065,25.5989 36.3983,25.2655 34.5,26.5C 33.2223,26.2178 32.2223,25.5511 31.5,24.5C 31.2148,22.712 31.5481,21.0453 32.5,19.5C 33.3078,21.4233 33.8078,23.4233 34,25.5C 36.8108,23.8203 38.6441,24.4869 39.5,27.5 Z"/></g>
<g><path style="opacity:1" fill="#f36b6c" d="M 39.5,27.5 C 41.2503,28.6594 42.2503,30.326 42.5,32.5C 40.7497,31.3406 39.7497,29.674 39.5,27.5 Z"/></g>
<g><path style="opacity:1" fill="#f89b9b" d="M 31.5,24.5 C 32.2223,25.5511 33.2223,26.2178 34.5,26.5C 33.791,27.404 32.791,27.7373 31.5,27.5C 31.7678,29.099 31.4345,30.4324 30.5,31.5C 30.5,30.8333 30.1667,30.5 29.5,30.5C 29.8751,28.3024 30.5418,26.3024 31.5,24.5 Z"/></g>
<g><path style="opacity:1" fill="#f15c5e" d="M 29.5,30.5 C 30.1667,30.5 30.5,30.8333 30.5,31.5C 30.7852,33.288 30.4519,34.9547 29.5,36.5C 28.0878,35.1936 26.4211,34.3603 24.5,34C 26.1124,33.2797 27.6124,33.4464 29,34.5C 29.49,33.2068 29.6567,31.8734 29.5,30.5 Z"/></g>
<g><path style="opacity:1" fill="#f4787b" d="M 42.5,32.5 C 44.5049,33.0388 46.5049,33.7055 48.5,34.5C 46.9255,35.6309 45.2588,35.7975 43.5,35C 42.7476,34.3292 42.4142,33.4959 42.5,32.5 Z"/></g>
<g><path style="opacity:1" fill="#ece1e7" d="M 47.5,45.5 C 47.5285,55.635 42.5285,59.8017 32.5,58C 28.1252,55.0735 26.1252,50.9068 26.5,45.5C 30.2705,38.477 35.9372,36.6436 43.5,40C 44.9771,41.8121 46.3104,43.6455 47.5,45.5 Z"/></g>
<g><path style="opacity:1" fill="#417fc7" d="M 48.5,45.5 C 48.1667,45.5 47.8333,45.5 47.5,45.5C 46.3104,43.6455 44.9771,41.8121 43.5,40C 35.9372,36.6436 30.2705,38.477 26.5,45.5C 26.1667,45.5 25.8333,45.5 25.5,45.5C 26.1335,42.3567 27.8002,39.8567 30.5,38C 39.0012,34.7556 45.0012,37.2556 48.5,45.5 Z"/></g>
<g><path style="opacity:1" fill="#e63737" d="M 33.5,39.5 C 42.6447,38.6238 46.4781,42.6238 45,51.5C 40.1747,59.0611 34.8414,59.3944 29,52.5C 27.3794,46.9227 28.8794,42.5894 33.5,39.5 Z"/></g>
<g><path style="opacity:1" fill="#feebea" d="M 34.5,42.5 C 35.8333,42.5 37.1667,42.5 38.5,42.5C 38.5,43.8333 38.5,45.1667 38.5,46.5C 39.8333,46.5 41.1667,46.5 42.5,46.5C 42.5,47.8333 42.5,49.1667 42.5,50.5C 41.1667,50.5 39.8333,50.5 38.5,50.5C 38.5,51.8333 38.5,53.1667 38.5,54.5C 37.5,54.5 36.5,54.5 35.5,54.5C 35.5,53.1667 35.5,51.8333 35.5,50.5C 33.8333,50.5 32.1667,50.5 30.5,50.5C 30.5,49.1667 30.5,47.8333 30.5,46.5C 31.8333,46.5 33.1667,46.5 34.5,46.5C 34.5,45.1667 34.5,43.8333 34.5,42.5 Z"/></g>
</svg>
